<svg width="121" height="79" viewBox="0 0 121 79" fill="none" xmlns="http://www.w3.org/2000/svg">
<g id="Layer_1" clip-path="url(#clip0_477_50)">
<path id="Vector" d="M13.1818 73.1096H14.3933C15.6734 73.1096 16.2879 74.0325 16.2879 75.8532C16.2879 77.8287 15.742 78.9226 14.2998 78.9226H13.1818V73.1096ZM13.6766 78.4868H14.265C15.4178 78.4868 15.7757 77.5628 15.7757 75.8794C15.7757 74.196 15.3232 73.5455 14.2737 73.5455H13.6766V78.4868Z" fill="white"/>
<path id="Vector_2" d="M21.2386 75.9645C21.2386 77.8887 20.8036 79.0001 19.5746 79.0001C18.3456 79.0001 17.9443 77.9399 17.9443 75.9819C17.9443 74.0239 18.4816 73.0237 19.5996 73.0237C20.7764 73.0237 21.2375 74.0076 21.2375 75.9645M18.4555 75.9645C18.4555 77.7253 18.8307 78.5643 19.5898 78.5643C20.349 78.5643 20.7242 77.734 20.7242 75.9819C20.7242 74.2299 20.3403 73.4693 19.58 73.4693C18.8198 73.4693 18.4544 74.2724 18.4544 75.9645" fill="white"/>
<path id="Vector_3" d="M23.5519 76.1693V78.9216H23.0571V73.1086H24.4818C25.4204 73.1086 25.8989 73.6643 25.8989 74.5796C25.8989 75.4949 25.4889 75.8283 25.1137 75.9481C25.6847 76.1355 25.8391 76.6487 25.8391 77.4431V77.6741C25.8391 78.1698 25.8467 78.6067 25.9239 78.9216H25.4204C25.3432 78.6569 25.3432 78.1186 25.3432 77.6566V77.4681C25.3432 76.6215 25.1811 76.1682 24.3448 76.1682H23.5508L23.5519 76.1693ZM23.5519 75.7422H24.3796C25.1224 75.7422 25.3954 75.2889 25.3954 74.5883C25.3954 73.9727 25.1137 73.5358 24.4318 73.5358H23.553V75.7422H23.5519Z" fill="white"/>
<path id="Vector_4" d="M30.6702 77.3417C30.6452 77.7002 30.4907 79.0001 29.1508 79.0001C27.6489 79.0001 27.5553 77.2993 27.5553 75.9645C27.5553 74.3399 27.9653 73.0237 29.228 73.0237C30.5756 73.0237 30.6365 74.341 30.6539 74.6483H30.1503C30.1416 74.451 30.0992 73.4857 29.2204 73.4857C28.2046 73.4857 28.0763 74.8967 28.0763 75.9569C28.0763 77.2306 28.2209 78.5556 29.1693 78.5556C30.0046 78.5556 30.1427 77.6664 30.1677 77.3417H30.6713H30.6702Z" fill="white"/>
<path id="Vector_5" d="M32.3777 73.1096H32.8736V75.6222H34.9292V73.1096H35.4153V78.9226H34.9292V76.0679H32.8736V78.9226H32.3777V73.1096Z" fill="white"/>
<path id="Vector_6" d="M39.9136 76.0592H37.9505V78.4781H40.1257L40.0582 78.9237H37.4643V73.1096H40.0158V73.5542H37.9505V75.6146H39.9136V76.0592Z" fill="white"/>
<path id="Vector_7" d="M41.98 77.4354C42.0224 78.0684 42.3465 78.5718 43.0208 78.5718C43.6951 78.5718 44.0105 78.2297 44.0105 77.4768C44.0105 76.81 43.7625 76.4689 42.9523 76.0756C42.0735 75.6561 41.6635 75.254 41.6635 74.4259C41.6635 73.673 42.141 73.0312 43.0545 73.0312C44.1041 73.0312 44.4031 73.8092 44.4205 74.4673H43.9333C43.9083 74.2015 43.8224 73.4584 43.0295 73.4584C42.415 73.4584 42.1584 73.8855 42.1584 74.3823C42.1584 74.9892 42.4313 75.2715 43.1742 75.6299C44.1813 76.1181 44.5141 76.6051 44.5141 77.4343C44.5141 78.3583 44.0192 78.999 43.0034 78.999C41.9039 78.999 41.5363 78.2646 41.4851 77.4343H41.98V77.4354Z" fill="white"/>
<path id="Vector_8" d="M47.0155 73.5542H45.7006V73.1096H48.8166V73.5542H47.5017V78.9226H47.0155V73.5542Z" fill="white"/>
<path id="Vector_9" d="M52.7504 76.0592H50.7873V78.4781H52.9635L52.8961 78.9237H50.3011V73.1096H52.8526V73.5542H50.7873V75.6146H52.7504V76.0592Z" fill="white"/>
<path id="Vector_10" d="M55.0463 76.1693V78.9216H54.5514V73.1086H55.9761C56.9147 73.1086 57.3933 73.6643 57.3933 74.5796C57.3933 75.4949 56.9833 75.8283 56.608 75.9481C57.179 76.1355 57.3335 76.6487 57.3335 77.4431V77.6741C57.3335 78.1698 57.3411 78.6067 57.4183 78.9216H56.9147C56.8375 78.6569 56.8375 78.1186 56.8375 77.6566V77.4681C56.8375 76.6215 56.6755 76.1682 55.8391 76.1682H55.0452L55.0463 76.1693ZM55.0463 75.7422H55.8739C56.6167 75.7422 56.8897 75.2889 56.8897 74.5883C56.8897 73.9727 56.608 73.5358 55.9261 73.5358H55.0473V75.7422H55.0463Z" fill="white"/>
<path id="Vector_11" d="M64.6062 77.3417C64.5811 77.7002 64.4267 79.0001 63.0868 79.0001C61.5848 79.0001 61.4913 77.2993 61.4913 75.9645C61.4913 74.3399 61.9013 73.0237 63.164 73.0237C64.5115 73.0237 64.5724 74.341 64.5898 74.6483H64.0863C64.0776 74.451 64.0352 73.4857 63.1564 73.4857C62.1406 73.4857 62.0123 74.8967 62.0123 75.9569C62.0123 77.2306 62.1569 78.5556 63.1053 78.5556C63.9405 78.5556 64.0787 77.6664 64.1037 77.3417H64.6072H64.6062Z" fill="white"/>
<path id="Vector_12" d="M69.4535 75.9645C69.4535 77.8887 69.0185 79.0001 67.7895 79.0001C66.5605 79.0001 66.1592 77.9399 66.1592 75.9819C66.1592 74.0239 66.6965 73.0237 67.8145 73.0237C68.9913 73.0237 69.4524 74.0076 69.4524 75.9645M66.6704 75.9645C66.6704 77.7253 67.0456 78.5643 67.8047 78.5643C68.5639 78.5643 68.9391 77.734 68.9391 75.9819C68.9391 74.2299 68.5552 73.4693 67.795 73.4693C67.0347 73.4693 66.6693 74.2724 66.6693 75.9645" fill="white"/>
<path id="Vector_13" d="M71.2731 73.1096H71.7679V78.4791H73.867L73.781 78.9226H71.2731V73.1096Z" fill="white"/>
<path id="Vector_14" d="M75.3352 73.1096H75.83V78.4791H77.9291L77.8443 78.9226H75.3352V73.1096Z" fill="white"/>
<path id="Vector_15" d="M81.8553 76.0592H79.8922V78.4781H82.0684L81.9999 78.9237H79.406V73.1096H81.9575V73.5542H79.8922V75.6146H81.8553V76.0592Z" fill="white"/>
<path id="Vector_16" d="M86.5917 77.3417C86.5667 77.7002 86.4123 79.0001 85.0724 79.0001C83.5704 79.0001 83.4769 77.2993 83.4769 75.9645C83.4769 74.3399 83.8869 73.0237 85.1496 73.0237C86.4971 73.0237 86.558 74.341 86.5754 74.6483H86.0719C86.0632 74.451 86.0207 73.4857 85.142 73.4857C84.1262 73.4857 83.9978 74.8967 83.9978 75.9569C83.9978 77.2306 84.1425 78.5556 85.0909 78.5556C85.9261 78.5556 86.0642 77.6664 86.0893 77.3417H86.5928H86.5917Z" fill="white"/>
<path id="Vector_17" d="M89.1117 73.5542H87.7968V73.1096H90.9116V73.5542H89.5978V78.9226H89.1117V73.5542Z" fill="white"/>
<path id="Vector_18" d="M92.891 73.1096H92.3962V78.9226H92.891V73.1096Z" fill="white"/>
<path id="Vector_19" d="M98.0038 75.9645C98.0038 77.8887 97.5687 79.0001 96.3398 79.0001C95.1108 79.0001 94.7095 77.9399 94.7095 75.9819C94.7095 74.0239 95.2467 73.0237 96.3648 73.0237C97.5416 73.0237 98.0027 74.0076 98.0027 75.9645M95.2206 75.9645C95.2206 77.7253 95.5959 78.5643 96.355 78.5643C97.1141 78.5643 97.4894 77.734 97.4894 75.9819C97.4894 74.2299 97.1054 73.4693 96.3452 73.4693C95.585 73.4693 95.2196 74.2724 95.2196 75.9645" fill="white"/>
<path id="Vector_20" d="M99.8222 78.9226V73.1096H100.462C102.22 77.4353 102.441 77.9572 102.518 78.1969H102.527C102.484 77.3852 102.477 76.5037 102.477 75.5634V73.1096H102.946V78.9226H102.341C100.515 74.3997 100.318 73.8952 100.258 73.6827H100.25C100.292 74.4084 100.292 75.401 100.292 76.4438V78.9226H99.8233H99.8222Z" fill="white"/>
<path id="Vector_21" d="M1.79256 53.5742C2.63 53.5742 3.16727 53.6756 3.61209 53.9697C4.36688 54.4677 4.42887 55.2707 4.42887 55.5649C4.42887 56.5401 3.81874 57.2516 2.89972 57.4543L5.0488 60.3482H3.77741L1.80344 57.5763H1.61746V60.3482H0.5625V53.5742H1.79256ZM1.61746 56.6817H1.94809C2.23738 56.6817 3.41633 56.6512 3.41633 55.5747C3.41633 54.6191 2.49623 54.5287 1.97963 54.5287H1.61746V56.6817Z" fill="white"/>
<path id="Vector_22" d="M11.9028 54.5483H9.15444V56.2655H11.8201V57.2407H9.15444V59.3741H11.9028V60.3482H8.09948V53.5742H11.9028V54.5483Z" fill="white"/>
<path id="Vector_23" d="M18.2412 55.077C18.1792 54.9244 18.0857 54.7817 17.9313 54.6498C17.7137 54.4777 17.4875 54.4058 17.1874 54.4058C16.5468 54.4058 16.2161 54.7817 16.2161 55.2175C16.2161 55.4202 16.289 55.7765 16.9601 56.0402L17.6528 56.3147C18.9231 56.8225 19.2755 57.534 19.2755 58.3054C19.2755 59.5944 18.3445 60.4792 17.0525 60.4792C16.2575 60.4792 15.7811 60.185 15.4298 59.7982C15.0579 59.3928 14.8925 58.945 14.8512 58.4787L15.8942 58.2542C15.8942 58.5898 16.0182 58.9047 16.1835 59.1172C16.3804 59.3613 16.6697 59.5247 17.0829 59.5247C17.7235 59.5247 18.2195 59.0671 18.2195 58.3872C18.2195 57.7072 17.6822 57.412 17.2276 57.2289L16.5663 56.9543C15.9986 56.7201 15.1601 56.2537 15.1601 55.2382C15.1601 54.3241 15.8844 53.4502 17.1754 53.4502C17.9193 53.4502 18.3435 53.7248 18.5621 53.9067C18.747 54.0691 18.9438 54.3033 19.0885 54.5877L18.2412 55.0759V55.077Z" fill="white"/>
<path id="Vector_24" d="M23.7412 53.5742H22.6873V60.3482H23.7412V53.5742Z" fill="white"/>
<path id="Vector_25" d="M28.942 53.5742C29.9023 53.5742 30.7409 53.6766 31.5054 54.2345C32.3429 54.8545 32.829 55.8395 32.829 56.9661C32.829 58.0928 32.3527 59.069 31.4434 59.6988C30.6375 60.2567 29.8828 60.3482 28.9213 60.3482H27.4944V53.5742H28.9409H28.942ZM28.5494 59.3741H29.004C29.5206 59.3741 30.234 59.3327 30.8344 58.8969C31.3086 58.5417 31.7752 57.8912 31.7752 56.9661C31.7752 56.0411 31.3412 55.372 30.8442 55.0168C30.2449 54.5908 29.5108 54.5494 29.0051 54.5494H28.5505V59.3741H28.5494Z" fill="white"/>
<path id="Vector_26" d="M40.0343 54.5483H37.286V56.2655H39.9516V57.2407H37.286V59.3741H40.0343V60.3482H36.231V53.5742H40.0343V54.5483Z" fill="white"/>
<path id="Vector_27" d="M43.5396 60.3483V53.1167L48.5425 58.2661V53.5743H49.5964V60.7646L44.5945 55.6151V60.3483H43.5396Z" fill="white"/>
<path id="Vector_28" d="M58.4678 55.1585C57.7032 54.4785 56.9898 54.4066 56.5972 54.4066C55.0974 54.4066 54.0848 55.494 54.0848 56.9868C54.0848 58.4795 55.1387 59.5266 56.6069 59.5266C57.4335 59.5266 58.0752 59.1093 58.4678 58.7443V59.9734C57.775 60.3809 57.0518 60.4811 56.5754 60.4811C55.3247 60.4811 54.5394 59.9222 54.1359 59.5463C53.3311 58.8042 53.031 57.9413 53.031 56.9868C53.031 55.7381 53.5584 54.8741 54.1359 54.3358C54.8494 53.6755 55.676 53.4521 56.6276 53.4521C57.2573 53.4521 57.8675 53.5633 58.4667 53.9403V55.1585H58.4678Z" fill="white"/>
<path id="Vector_29" d="M65.7568 54.5483H63.0074V56.2655H65.6742V57.2407H63.0074V59.3741H65.7568V60.3482H61.9535V53.5742H65.7568V54.5483Z" fill="white"/>
<path id="Vector_30" d="M72.0953 55.077C72.0333 54.9244 71.9397 54.7817 71.7853 54.6498C71.5678 54.4777 71.3416 54.4058 71.0414 54.4058C70.4008 54.4058 70.0702 54.7817 70.0702 55.2175C70.0702 55.4202 70.1431 55.7765 70.8141 56.0402L71.5069 56.3147C72.7772 56.8225 73.1296 57.534 73.1296 58.3054C73.1296 59.5944 72.1986 60.4792 70.9065 60.4792C70.1115 60.4792 69.6352 60.185 69.2839 59.7982C68.9119 59.3928 68.7466 58.945 68.7053 58.4787L69.7483 58.2542C69.7483 58.5898 69.8722 58.9047 70.0376 59.1172C70.2344 59.3613 70.5237 59.5247 70.937 59.5247C71.5776 59.5247 72.0735 59.0671 72.0735 58.3872C72.0735 57.7072 71.5363 57.412 71.0816 57.2289L70.4204 56.9543C69.8527 56.7201 69.0141 56.2537 69.0141 55.2382C69.0141 54.3241 69.7385 53.4502 71.0294 53.4502C71.7733 53.4502 72.1975 53.7248 72.4161 53.9067C72.601 54.0691 72.7979 54.3033 72.9425 54.5877L72.0953 55.0759V55.077Z" fill="white"/>
<path id="Vector_31" d="M76.0769 59.0789L76.9862 59.4243L75.7039 61.9325L75.0209 61.659L76.0769 59.0789Z" fill="white"/>
<path id="Vector_32" d="M85.5977 53.5742C86.5591 53.5742 87.3965 53.6766 88.1611 54.2345C88.9985 54.8545 89.4847 55.8395 89.4847 56.9661C89.4847 58.0928 89.0083 59.069 88.0991 59.6988C87.2932 60.2567 86.5384 60.3482 85.577 60.3482H84.1501V53.5742H85.5966H85.5977ZM85.205 59.3741H85.6597C86.1763 59.3741 86.8897 59.3327 87.489 58.8969C87.9653 58.5417 88.4297 57.8912 88.4297 56.9661C88.4297 56.0411 87.9958 55.372 87.4988 55.0168C86.8995 54.5908 86.1654 54.5494 85.6597 54.5494H85.205V59.3741Z" fill="white"/>
<path id="Vector_33" d="M93.8992 53.5742V57.6569C93.8992 58.0219 93.9101 58.4687 94.1167 58.825C94.3234 59.1693 94.7889 59.5256 95.3979 59.5256C96.007 59.5256 96.4735 59.1704 96.6791 58.825C96.8857 58.4687 96.8966 58.0219 96.8966 57.6569V53.5742H97.9505V57.9315C97.9505 58.4687 97.8374 59.1192 97.3088 59.689C96.9466 60.0747 96.3376 60.4812 95.3968 60.4812C94.4561 60.4812 93.8459 60.0747 93.4848 59.689C92.9574 59.1192 92.8432 58.4698 92.8432 57.9315V53.5742H93.897H93.8992Z" fill="white"/>
<path id="Vector_34" d="M102.76 53.5742C103.648 53.5742 104.206 53.6864 104.662 54.1027C105.034 54.4481 105.209 54.885 105.209 55.444C105.209 55.7076 105.168 55.9822 105.002 56.2459C104.847 56.5096 104.64 56.6425 104.486 56.7123C104.61 56.7428 105.034 56.855 105.374 57.2004C105.746 57.5872 105.829 58.0535 105.829 58.4698C105.829 58.9579 105.705 59.3436 105.374 59.689C104.827 60.2578 103.969 60.3493 103.442 60.3493H101.716V53.5753H102.76V53.5742ZM102.77 56.4889H103.09C103.348 56.4889 103.699 56.4584 103.949 56.2252C104.186 56.0018 104.217 55.6869 104.217 55.4538C104.217 55.2511 104.186 55.0059 103.969 54.8033C103.731 54.5799 103.432 54.5494 103.132 54.5494H102.77V56.49V56.4889ZM102.77 59.3741H103.41C103.71 59.3741 104.186 59.3229 104.455 59.1094C104.662 58.947 104.796 58.6626 104.796 58.3586C104.796 58.084 104.692 57.8204 104.516 57.6482C104.227 57.3736 103.803 57.3431 103.431 57.3431H102.77V59.3752V59.3741Z" fill="white"/>
<path id="Vector_35" d="M113.18 58.7128H110.234L109.479 60.3482H108.342L111.775 53.1787L115.041 60.3482H113.904L113.181 58.7128H113.18ZM112.756 57.7376L111.732 55.4429L110.668 57.7376H112.755H112.756Z" fill="white"/>
<path id="Vector_36" d="M119.074 53.5742H118.02V60.3482H119.074V53.5742Z" fill="white"/>
<path id="Vector_37" d="M0.5625 17.5969V42.9235H16.3097C17.754 42.9235 18.4816 42.4865 19.1243 41.2531C19.617 40.3041 20.101 39.3747 20.4207 38.7601H7.91241C6.21251 38.7601 5.46752 39.1622 4.25595 40.1668C3.33476 40.9306 2.64197 41.5266 1.83171 42.2174V17.5969H0.5625Z" fill="white"/>
<path id="Vector_38" d="M84.2741 17.5969V36.192C80.4838 31.8935 72.3074 22.681 69.7602 19.8034C68.0973 17.9227 67.1968 17.6046 64.5855 17.6046H61.562V42.9246H62.8312V18.8162L84.1631 42.9246H85.5444V17.598H84.2752L84.2741 17.5969Z" fill="white"/>
<path id="Vector_39" d="M37.8254 19.9222C37.4197 20.7046 37.2435 21.1992 37.2435 21.7201C37.2435 22.1788 37.4458 22.631 37.8004 23.2793C38.1386 23.8982 40.7456 28.7262 43.3754 33.5531C42.675 34.6307 41.9952 34.9815 40.7554 34.9815H33.2532C31.2433 34.9815 30.2428 35.7421 29.4858 37.2097C28.7093 38.7167 27.2965 41.4537 26.5363 42.9236H27.8381C28.1763 42.272 28.5951 41.4559 28.8887 40.8773C29.6805 39.3192 30.0579 39.0435 31.6512 39.0435H39.0837C41.3133 39.0435 41.955 38.6066 42.6391 37.2795C43.1459 36.2988 43.5298 35.5536 43.9855 34.6721C45.8616 38.1087 47.6594 41.3753 48.5555 42.9247H53.7009L39.3817 16.8594C39.0054 17.609 38.3453 18.9111 37.8232 19.9222" fill="white"/>
<path id="Vector_40" d="M104.684 19.9222C104.279 20.7046 104.103 21.1992 104.103 21.7201C104.103 22.1788 104.305 22.631 104.66 23.2793C104.998 23.8982 107.605 28.7262 110.236 33.5531C109.535 34.6307 108.855 34.9815 107.615 34.9815H100.114C98.1006 34.9815 97.1022 35.7421 96.3441 37.2097C95.5665 38.7167 94.1548 41.4537 93.3968 42.9236H94.6975C95.0357 42.272 95.4556 41.4559 95.7492 40.8773C96.541 39.3192 96.9184 39.0435 98.5117 39.0435H105.944C108.173 39.0435 108.815 38.6066 109.498 37.2795C110.006 36.2988 110.389 35.5536 110.845 34.6721C112.721 38.1087 114.519 41.3753 115.416 42.9247H120.56L106.241 16.8594C105.866 17.609 105.206 18.9111 104.683 19.9222" fill="white"/>
<path id="Vector_41" d="M44.8751 0V0.958844H47.4636V7.40489H48.4707V0.958844H51.0581V0H44.8751Z" fill="white"/>
<path id="Vector_42" d="M61.0737 0V3.15874H56.434V0H55.4258V7.40489H56.434V4.11758H61.0737V7.40489H62.0808V0H61.0737Z" fill="white"/>
<path id="Vector_43" d="M67.0761 0V7.40489H72.6032V6.44713H68.0821V4.12739H72.0703V3.17944H68.0821V0.958844H72.5542V0H67.0761Z" fill="white"/>
</g>
<defs>
<clipPath id="clip0_477_50">
<rect width="120" height="79" fill="white" transform="translate(0.5625)"/>
</clipPath>
</defs>
</svg>
